<?xml version="1.0" encoding="UTF-8"?>
<svg width="197px" height="40px" viewBox="0 0 197 40" version="1.1" xmlns="http://www.w3.org/2000/svg" xmlns:xlink="http://www.w3.org/1999/xlink">
    <!-- Generator: Sketch 48.1 (47250) - http://www.bohemiancoding.com/sketch -->
    <title>Combined Shape</title>
    <desc>Created with Sketch.</desc>
    <defs></defs>
    <g id="Retail-Fashion@2x" stroke="none" stroke-width="1" fill="none" fill-rule="evenodd" transform="translate(-151.000000, -1366.000000)">
        <path d="M223.063146,1405.12151 L212.820719,1405.12151 C204.317059,1405.12151 195.293498,1398.09979 195.293498,1388.6559 L195.293498,1370.53864 C195.293498,1368.94166 196.025805,1367.71255 197.486716,1366.85752 C198.546277,1366.28833 199.635477,1366 200.753079,1366 C201.875622,1366 202.963586,1366.28833 204.019443,1366.86125 C205.481589,1367.71752 206.211426,1368.92178 206.211426,1370.55479 C206.211426,1372.18781 206.215131,1386.63514 206.215131,1386.63514 C206.215131,1396.12501 211.185685,1399.04058 215.946302,1399.04058 L223.108838,1399.04058 C223.917711,1399.04058 224.696946,1399.23942 225.441602,1399.63339 C226.532037,1400.19264 227.075402,1401.01163 227.075402,1402.08042 C227.075402,1403.15046 226.514748,1403.96572 225.397145,1404.5287 C224.616676,1404.92266 223.839911,1405.12151 223.063146,1405.12151 Z M263.515178,1405.15792 C262.351883,1405.15792 261.223166,1404.79751 260.129027,1404.07173 C258.610075,1403.15456 257.853069,1401.74276 257.853069,1399.83882 L257.853069,1371.31948 C257.853069,1369.41678 258.610075,1368.00622 260.129027,1367.08284 C261.223166,1366.36326 262.351883,1366.00037 263.515178,1366.00037 C264.674768,1366.00037 265.80225,1366.36326 266.901329,1367.08284 C268.417811,1368.00622 269.176052,1369.41678 269.176052,1371.31948 L269.176052,1399.83882 C269.176052,1401.68062 268.417811,1403.08869 266.901329,1404.07173 C265.80225,1404.79751 264.674768,1405.15792 263.515178,1405.15792 Z M253.792652,1367.56864 C254.271801,1368.30934 254.51508,1369.07365 254.51508,1369.85908 C254.51508,1370.64452 254.271801,1371.40635 253.792652,1372.14953 C253.180131,1373.17234 252.235417,1373.68436 250.96345,1373.68436 L241.478028,1373.68436 L241.478028,1399.83869 C241.478028,1401.68049 240.721022,1403.08732 239.20207,1404.07161 C238.105461,1404.79739 236.977979,1405.1578 235.817154,1405.1578 C234.656329,1405.1578 233.526378,1404.79739 232.429768,1404.07161 C230.912052,1403.15443 230.156281,1401.74263 230.156281,1399.83869 L230.156281,1373.68436 L220.668389,1373.68436 C219.438409,1373.68436 218.496165,1373.17234 217.840422,1372.14953 C217.358803,1371.40635 217.116759,1370.64452 217.116759,1369.85908 C217.116759,1369.07365 217.358803,1368.30934 217.840422,1367.56864 C218.454177,1366.5421 219.395187,1366.03008 220.668389,1366.03008 L250.96345,1366.03008 C252.235417,1366.03008 253.180131,1366.5421 253.792652,1367.56864 Z M293.27453,1405.14152 C291.146763,1405.14152 289.165951,1404.35981 288.394126,1402.79639 L273.270059,1372.8814 C272.931691,1372.21403 272.760037,1371.54541 272.760037,1370.87555 C272.760037,1369.14685 273.515808,1367.86305 275.02488,1367.02666 C276.099261,1366.35805 277.237857,1366.02374 278.436965,1366.02374 C280.563497,1366.02374 282.008354,1366.81166 282.778944,1368.38626 L293.596844,1388.41865 L303.882494,1368.38502 C304.649379,1366.81166 306.10041,1366.02374 308.222003,1366.02374 C309.42358,1366.02374 310.562177,1366.35805 311.636557,1367.02666 C313.14563,1367.86305 313.901401,1369.14685 313.901401,1370.87555 C313.901401,1371.54541 313.733452,1372.21403 313.393849,1372.8814 L298.804502,1402.79639 C298.030207,1404.35981 296.046926,1405.14152 293.921628,1405.14152 L293.27453,1405.14152 Z M326.9755,1366.02361 C329.103267,1366.02361 331.087784,1366.80532 331.855904,1368.3675 L346.981206,1398.28248 C347.318339,1398.9511 347.491228,1399.61972 347.491228,1400.28957 C347.491228,1402.01828 346.734222,1403.30332 345.22515,1404.13847 C344.150769,1404.80708 343.012173,1405.14139 341.810596,1405.14139 C339.691473,1405.14139 338.242911,1404.35347 337.472321,1402.77638 L326.653186,1382.74399 L316.367536,1402.78011 C315.599416,1404.35347 314.154559,1405.14139 312.028027,1405.14139 C310.82645,1405.14139 309.689088,1404.80708 308.609768,1404.13847 C307.1044,1403.30332 306.347394,1402.01828 306.347394,1400.28957 C306.347394,1399.61972 306.519048,1398.9511 306.857416,1398.28248 L321.447998,1368.3675 C322.221058,1366.80532 324.201869,1366.02361 326.328402,1366.02361 L326.9755,1366.02361 Z M330.648276,1397.31833 C330.648276,1399.32542 328.977429,1400.95223 326.918817,1400.95223 C324.860205,1400.95223 323.191828,1399.32542 323.191828,1397.31833 C323.191828,1395.31124 324.860205,1393.68444 326.918817,1393.68444 C328.977429,1393.68444 330.648276,1395.31124 330.648276,1397.31833 Z M171.064982,1366.0302 C182.147155,1366.0302 191.128729,1374.78435 191.128729,1385.58536 C191.128729,1396.38389 182.147155,1405.14176 171.064982,1405.14176 C159.982809,1405.14176 151,1396.38389 151,1385.58536 C151,1374.78435 159.982809,1366.0302 171.064982,1366.0302 Z M171.064982,1401.40224 C176.042945,1401.40224 180.078664,1394.32087 180.078664,1385.58536 C180.078664,1376.85109 176.042945,1369.76849 171.064982,1369.76849 C166.085784,1369.76849 162.050065,1376.85109 162.050065,1385.58536 C162.050065,1394.32087 166.085784,1401.40224 171.064982,1401.40224 Z M174.793947,1385.58536 C174.793947,1387.58997 173.1231,1389.21925 171.066958,1389.21925 C169.005876,1389.21925 167.336264,1387.58997 167.336264,1385.58536 C167.336264,1383.57827 169.005876,1381.95147 171.066958,1381.95147 C173.1231,1381.95147 174.793947,1383.57827 174.793947,1385.58536 Z" id="Combined-Shape" fill="#FFFFFF"></path>
    </g>
</svg>