<?xml version="1.0" encoding="UTF-8"?>
<svg width="72px" height="70px" viewBox="0 0 72 70" version="1.1" xmlns="http://www.w3.org/2000/svg" xmlns:xlink="http://www.w3.org/1999/xlink">
    <!-- Generator: Sketch 48.1 (47250) - http://www.bohemiancoding.com/sketch -->
    <title>Combined Shape Copy 2</title>
    <desc>Created with Sketch.</desc>
    <defs></defs>
    <g id="Retail-Fashion@2x" stroke="none" stroke-width="1" fill="none" fill-rule="evenodd" transform="translate(-482.000000, -1351.000000)">
        <path d="M517.86855,1351 C537.679257,1351 553.734893,1366.64909 553.734893,1385.95718 C553.734893,1405.26084 537.679257,1420.91659 517.86855,1420.91659 C498.057843,1420.91659 482,1405.26084 482,1385.95718 C482,1366.64909 498.057843,1351 517.86855,1351 Z M517.86855,1414.23174 C526.767253,1414.23174 533.981582,1401.57295 533.981582,1385.95718 C533.981582,1370.34364 526.767253,1357.68263 517.86855,1357.68263 C508.96764,1357.68263 501.75331,1370.34364 501.75331,1385.95718 C501.75331,1401.57295 508.96764,1414.23174 517.86855,1414.23174 Z M524.53452,1385.95718 C524.53452,1389.54066 521.547681,1392.4532 517.872082,1392.4532 C514.187653,1392.4532 511.203022,1389.54066 511.203022,1385.95718 C511.203022,1382.36927 514.187653,1379.46117 517.872082,1379.46117 C521.547681,1379.46117 524.53452,1382.36927 524.53452,1385.95718 Z" id="Combined-Shape-Copy-2" fill="#FFFFFF"></path>
    </g>
</svg>